<svg width="29" height="44" viewBox="0 0 29 44" fill="none" xmlns="http://www.w3.org/2000/svg">
<mask id="path-1-outside-1_737_20" maskUnits="userSpaceOnUse" x="0.586014" y="0.538757" width="29" height="44" fill="black">
<rect fill="white" x="0.586014" y="0.538757" width="29" height="44"/>
<path fill-rule="evenodd" clip-rule="evenodd" d="M17.4789 26.3052C22.7918 25.0401 26.7421 20.2734 26.7421 14.5864C26.7421 7.93268 21.3346 2.53876 14.6641 2.53876C7.99354 2.53876 2.58601 7.93268 2.58601 14.5864C2.58601 20.3067 6.58268 25.0958 11.9426 26.327L14.7762 43.5867L17.4789 26.3052Z"/>
</mask>
<path fill-rule="evenodd" clip-rule="evenodd" d="M17.4789 26.3052C22.7918 25.0401 26.7421 20.2734 26.7421 14.5864C26.7421 7.93268 21.3346 2.53876 14.6641 2.53876C7.99354 2.53876 2.58601 7.93268 2.58601 14.5864C2.58601 20.3067 6.58268 25.0958 11.9426 26.327L14.7762 43.5867L17.4789 26.3052Z" fill="white" fill-opacity="0.62"/>
<path d="M17.4789 26.3052L17.2472 25.3324L16.5945 25.4878L16.4909 26.1507L17.4789 26.3052ZM11.9426 26.327L12.9294 26.165L12.8206 25.5027L12.1664 25.3524L11.9426 26.327ZM14.7762 43.5867L13.7894 43.7487L15.7641 43.7412L14.7762 43.5867ZM27.7421 14.5864C27.7421 14.0089 27.7044 13.4397 27.6313 12.8811L25.6482 13.1408C25.7101 13.6135 25.7421 14.096 25.7421 14.5864H27.7421ZM26.7468 9.58548C26.3048 8.52363 25.7265 7.53307 25.0341 6.63542L23.4505 7.85696C24.0372 8.61764 24.5266 9.4562 24.9003 10.3541L26.7468 9.58548ZM22.619 4.22933C21.7196 3.54072 20.7274 2.96588 19.6642 2.52666L18.9006 4.37513C19.8004 4.74686 20.6408 5.23366 21.4033 5.81738L22.619 4.22933ZM16.3685 1.64867C15.8102 1.57612 15.2412 1.53876 14.6641 1.53876V3.53876C15.1548 3.53876 15.6377 3.57052 16.1107 3.632L16.3685 1.64867ZM14.6641 1.53876C14.0869 1.53876 13.5179 1.57612 12.9596 1.64867L13.2174 3.632C13.6904 3.57052 14.1733 3.53876 14.6641 3.53876V1.53876ZM9.66386 2.52666C8.60068 2.96588 7.60854 3.54072 6.70907 4.22933L7.92484 5.81738C8.6873 5.23366 9.5277 4.74686 10.4275 4.37513L9.66386 2.52666ZM4.29401 6.63542C3.6016 7.53307 3.02335 8.52363 2.58135 9.58548L4.42777 10.3541C4.80152 9.4562 5.29087 8.61764 5.87763 7.85696L4.29401 6.63542ZM1.69682 12.8811C1.62368 13.4397 1.58601 14.0089 1.58601 14.5864H3.58601C3.58601 14.096 3.618 13.6135 3.67989 13.1408L1.69682 12.8811ZM1.58601 14.5864C1.58601 15.0794 1.61346 15.5663 1.66698 16.0457L3.65463 15.8238C3.60932 15.4179 3.58601 15.0051 3.58601 14.5864H1.58601ZM2.31547 18.8931C2.64104 19.8223 3.06883 20.7033 3.5852 21.5227L5.27721 20.4563C4.83999 19.7626 4.47818 19.0173 4.20298 18.2318L2.31547 18.8931ZM5.40652 23.8026C6.09439 24.4903 6.85888 25.1019 7.68629 25.6236L8.75296 23.9318C8.0519 23.4898 7.40383 22.9714 6.8206 22.3882L5.40652 23.8026ZM10.314 26.8946C10.7711 27.0555 11.2399 27.1917 11.7187 27.3016L12.1664 25.3524C11.7612 25.2593 11.3645 25.1441 10.9777 25.008L10.314 26.8946ZM10.9558 26.489L11.1919 27.9273L13.1655 27.6033L12.9294 26.165L10.9558 26.489ZM11.6642 30.8039L12.1364 33.6805L14.11 33.3565L13.6378 30.4799L11.6642 30.8039ZM12.6087 36.5571L13.081 39.4338L15.0545 39.1097L14.5823 36.2331L12.6087 36.5571ZM13.5532 42.3104L13.7894 43.7487L15.7629 43.4247L15.5268 41.9864L13.5532 42.3104ZM15.7641 43.7412L15.9894 42.3011L14.0134 41.992L13.7882 43.4322L15.7641 43.7412ZM16.4398 39.4208L16.8903 36.5406L14.9143 36.2315L14.4638 39.1118L16.4398 39.4208ZM17.3407 33.6603L17.7912 30.7801L15.8152 30.471L15.3647 33.3513L17.3407 33.6603ZM18.2416 27.8998L18.4669 26.4597L16.4909 26.1507L16.2657 27.5908L18.2416 27.8998ZM17.7105 27.278C18.1855 27.1649 18.6505 27.0259 19.1038 26.8627L18.4263 24.981C18.0427 25.1191 17.6492 25.2367 17.2472 25.3324L17.7105 27.278ZM21.7075 25.5819C22.5268 25.0585 23.2836 24.4466 23.9643 23.7597L22.5437 22.3519C21.9665 22.9343 21.325 23.453 20.6308 23.8965L21.7075 25.5819ZM25.7659 21.486C26.2765 20.6699 26.6994 19.793 27.0212 18.8686L25.1324 18.2111C24.8604 18.9925 24.5027 19.7343 24.0704 20.4253L25.7659 21.486ZM27.6621 16.0371C27.715 15.5604 27.7421 15.0764 27.7421 14.5864H25.7421C25.7421 15.0026 25.7191 15.413 25.6743 15.8165L27.6621 16.0371ZM17.4789 26.3052L17.0156 24.3596L15.7102 24.6704L15.5029 25.9962L17.4789 26.3052ZM11.9426 26.327L13.9161 26.003L13.6987 24.6783L12.3903 24.3778L11.9426 26.327ZM14.7762 43.5867L12.8026 43.9107L16.7521 43.8957L14.7762 43.5867ZM28.7421 14.5864C28.7421 13.9654 28.7016 13.3528 28.6228 12.7513L24.6567 13.2706C24.713 13.7004 24.7421 14.1395 24.7421 14.5864H28.7421ZM27.67 9.20119C27.1938 8.05734 26.5711 6.99079 25.8259 6.02465L22.6587 8.46773C23.1926 9.15992 23.6375 9.92248 23.9771 10.7384L27.67 9.20119ZM23.2269 3.4353C22.2589 2.69425 21.1909 2.07539 20.0461 1.60242L18.5188 5.29937C19.3369 5.63735 20.1014 6.08014 20.7954 6.61141L23.2269 3.4353ZM16.4973 0.65701C15.8964 0.578922 15.2844 0.538757 14.6641 0.538757V4.53876C15.1116 4.53876 15.5514 4.56772 15.9819 4.62366L16.4973 0.65701ZM14.6641 0.538757C14.0437 0.538757 13.4317 0.578922 12.8308 0.65701L13.3462 4.62366C13.7767 4.56772 14.2165 4.53876 14.6641 4.53876V0.538757ZM9.28204 1.60242C8.13717 2.07539 7.06917 2.69425 6.10119 3.4353L8.53272 6.61141C9.22668 6.08014 9.9912 5.63735 10.8093 5.29937L9.28204 1.60242ZM3.5022 6.02465C2.75696 6.99079 2.13427 8.05734 1.65814 9.20119L5.35099 10.7384C5.6906 9.92248 6.13551 9.15992 6.66943 8.46773L3.5022 6.02465ZM0.705283 12.7513C0.626526 13.3528 0.586014 13.9654 0.586014 14.5864H4.58601C4.58601 14.1395 4.61516 13.7004 4.67143 13.2706L0.705283 12.7513ZM0.586014 14.5864C0.586014 15.1165 0.615526 15.6405 0.673151 16.1566L4.64845 15.7128C4.60725 15.3437 4.58601 14.9679 4.58601 14.5864H0.586014ZM1.37172 19.2237C1.72247 20.2249 2.18325 21.1737 2.73919 22.0558L6.12322 19.9232C5.72557 19.2922 5.39674 18.6147 5.14673 17.9011L1.37172 19.2237ZM4.69948 24.5097C5.43967 25.2498 6.26238 25.908 7.15295 26.4695L9.2863 23.0859C8.64841 22.6837 8.05856 22.2119 7.52765 21.6811L4.69948 24.5097ZM9.98211 27.838C10.4744 28.0112 10.9793 28.1578 11.4948 28.2763L12.3903 24.3778C12.0219 24.2931 11.6612 24.1884 11.3095 24.0646L9.98211 27.838ZM9.96899 26.651L10.2051 28.0893L14.1523 27.4413L13.9161 26.003L9.96899 26.651ZM10.6774 30.9659L11.1496 33.8425L15.0968 33.1945L14.6245 30.3179L10.6774 30.9659ZM11.6219 36.7192L12.0942 39.5958L16.0413 38.9477L15.5691 36.0711L11.6219 36.7192ZM12.5664 42.4724L12.8026 43.9107L16.7497 43.2627L16.5136 41.8244L12.5664 42.4724ZM16.7521 43.8957L16.9774 42.4556L13.0254 41.8375L12.8002 43.2776L16.7521 43.8957ZM17.4278 39.5753L17.8783 36.6951L13.9263 36.077L13.4759 38.9573L17.4278 39.5753ZM18.3287 33.8148L18.7792 30.9346L14.8272 30.3165L14.3768 33.1968L18.3287 33.8148ZM19.2296 28.0543L19.4549 26.6142L15.5029 25.9962L15.2777 27.4363L19.2296 28.0543ZM17.9421 28.2508C18.4536 28.129 18.9543 27.9794 19.4425 27.8036L18.0876 24.0401C17.7388 24.1656 17.3811 24.2725 17.0156 24.3596L17.9421 28.2508ZM22.2459 26.4246C23.1277 25.8613 23.9421 25.2027 24.6746 24.4636L21.8334 21.648C21.308 22.1781 20.7241 22.6502 20.0925 23.0537L22.2459 26.4246ZM26.6137 22.0164C27.1634 21.1377 27.6189 20.1933 27.9656 19.1973L24.188 17.8823C23.9408 18.5922 23.6158 19.2665 23.2226 19.8949L26.6137 22.0164ZM28.656 16.1474C28.7129 15.6342 28.7421 15.1133 28.7421 14.5864H24.7421C24.7421 14.9656 24.7211 15.3392 24.6804 15.7062L28.656 16.1474Z" fill="#7C2384" mask="url(#path-1-outside-1_737_20)"/>
</svg>
