<svg width="26" height="43" viewBox="0 0 26 43" fill="none" xmlns="http://www.w3.org/2000/svg">
<g id="Vector">
<path d="M13.1109 41.8848L9.56364 20.2212H16.4918L13.1109 41.8848Z" fill="#d9d9d9"/>
<path d="M25 13C25 19.6274 19.6274 25 13 25C6.37258 25 1 19.6274 1 13C1 6.37258 6.37258 1 13 1C19.6274 1 25 6.37258 25 13Z" fill="#ed8eed"/>
<path d="M12.6175 41.9656L13.6049 41.9619L16.2402 25.0759C21.573 23.6486 25.5 18.7829 25.5 13C25.5 6.09644 19.9036 0.5 13 0.5C6.09644 0.5 0.5 6.09644 0.5 13C0.5 18.8177 4.47434 23.7071 9.85607 25.1013L12.6175 41.9656Z" stroke="#333333"/>
</g>
</svg>
