<svg width="28" height="44" viewBox="0 0 28 44" fill="none" xmlns="http://www.w3.org/2000/svg">
<path d="M13.124 43.0464L15.0989 43.039L15.3102 41.685L14.9177 41.6237L14.8761 41.3692L14.3336 41.458L14.7448 38.8228L15.7329 38.977L16.1555 36.2691L15.1674 36.1149L15.5901 33.4069L16.5781 33.5611L17.0007 30.8532L16.0127 30.699L16.4353 27.9911L17.4233 28.1453L17.846 25.4373L17.7088 25.4159C18.009 25.3184 18.3041 25.2094 18.5935 25.0894L18.9765 26.0132C20.0339 25.5747 21.0205 25.0009 21.9147 24.3137L21.3054 23.5208C22.1367 22.882 22.882 22.1367 23.5208 21.3054L24.3137 21.9147C25.0009 21.0205 25.5747 20.0339 26.0132 18.9765L25.0894 18.5935C25.4846 17.6405 25.7605 16.6256 25.8986 15.5673L26.8902 15.6967C26.9627 15.1409 27 14.5746 27 14C27 13.4254 26.9627 12.8591 26.8902 12.3033L25.8986 12.4327C25.7605 11.3744 25.4846 10.3595 25.0894 9.40655L26.0132 9.02349C25.5747 7.96608 25.0009 6.9795 24.3137 6.08526L23.5208 6.69459C22.882 5.86329 22.1367 5.11803 21.3054 4.47921L21.9147 3.68629C21.0205 2.9991 20.0339 2.42533 18.9765 1.98684L18.5935 2.91057C17.6405 2.51539 16.6256 2.23947 15.5673 2.10143L15.6967 1.10983C15.1409 1.03734 14.5746 1 14 1C13.4254 1 12.8591 1.03734 12.3033 1.10983L12.4327 2.10143C11.3744 2.23947 10.3595 2.51539 9.40655 2.91057L9.02349 1.98684C7.96608 2.42533 6.9795 2.9991 6.08526 3.68629L6.69459 4.47921C5.86329 5.11803 5.11803 5.86329 4.47921 6.69459L3.68629 6.08526C2.9991 6.9795 2.42533 7.96608 1.98684 9.02349L2.91057 9.40655C2.51539 10.3595 2.23947 11.3744 2.10143 12.4327L1.10983 12.3033C1.03734 12.8591 1 13.4254 1 14C1 14.5746 1.03734 15.1409 1.10983 15.6967L2.10143 15.5673C2.23947 16.6256 2.51539 17.6405 2.91057 18.5935L1.98684 18.9765C2.42533 20.0339 2.9991 21.0205 3.68629 21.9147L4.47921 21.3054C5.11803 22.1367 5.86329 22.882 6.69459 23.5208L6.08526 24.3137C6.9795 25.0009 7.96608 25.5747 9.02349 26.0132L9.40655 25.0894C9.70958 25.2151 10.0189 25.3287 10.3338 25.4296L10.2419 25.4447L10.6853 28.1526L11.6722 27.9911L12.1156 30.699L11.1287 30.8606L11.5721 33.5685L12.559 33.4069L13.0024 36.1149L12.0155 36.2765L12.4589 38.9844L13.4458 38.8228L13.8778 41.4614L13.3342 41.3766L13.2949 41.6281L12.9023 41.6924L13.124 43.0464Z" fill="white" fill-opacity="0.62" stroke="#7C2384" stroke-width="2" stroke-dasharray="3 3"/>
</svg>
